<?xml version="1.0" encoding="UTF-8" standalone="no"?>
<!DOCTYPE svg PUBLIC "-//W3C//DTD SVG 1.1//EN" "http://www.w3.org/Graphics/SVG/1.1/DTD/svg11.dtd">
<svg xmlns="http://www.w3.org/2000/svg" xmlns:xlink="http://www.w3.org/1999/xlink" width="525" height="380" version="1.1">
  <defs>
    <linearGradient id="lg0">
      <stop style="stop-color:#ffffe0;stop-opacity:1" offset="0"/>
      <stop style="stop-color:#ff0;stop-opacity:1" offset="1"/>
    </linearGradient>
    <linearGradient id="lg1">
      <stop style="stop-color:#00f;stop-opacity:1" offset="0"/>
      <stop style="stop-color:#e0e0ff;stop-opacity:1" offset="1"/>
    </linearGradient>
    <linearGradient id="lg2">
      <stop style="stop-color:#fff;stop-opacity:1" offset="0"/>
      <stop style="stop-color:#fff;stop-opacity:0" offset="1"/>
    </linearGradient>
    <linearGradient id="lg3">
      <stop style="stop-color:#f00;stop-opacity:1" offset="0"/>
      <stop offset="1" style="stop-color:#ffe0e0;stop-opacity:1"/>
    </linearGradient>
    <linearGradient xlink:href="#lg2" id="lg4" gradientUnits="userSpaceOnUse" gradientTransform="matrix(0.545556,0,0,0.350255,-38.51666,72.6073)" x1="139.43112" y1="520.74255" x2="222.73912" y2="520.74255"/>
    <linearGradient xlink:href="#lg3" id="lg5" gradientUnits="userSpaceOnUse" gradientTransform="matrix(1.000031,0,0,1.000031,-45.00832,-319.1057)" x1="221.01576" y1="674.0849" x2="119.92342" y2="474.09103"/>
    <linearGradient xlink:href="#lg2" id="lg6" gradientUnits="userSpaceOnUse" gradientTransform="matrix(0.545558,0,0,0.350255,91.4834,-57.3926)" x1="139.62971" y1="520.74225" x2="222.73819" y2="520.74225"/>
    <linearGradient xlink:href="#lg1" id="lg7" gradientUnits="userSpaceOnUse" gradientTransform="matrix(1.334164,0,0,1.334164,-90.28301,-537.514)" x1="296.20334" y1="571.52942" x2="220.84492" y2="421.62283"/>
    <linearGradient xlink:href="#lg2" id="lg8" gradientUnits="userSpaceOnUse" gradientTransform="matrix(0.545558,0,0,0.350255,236.4833,37.6074)" x1="139.43103" y1="520.74225" x2="222.73837" y2="520.74225"/>
    <linearGradient xlink:href="#lg0" id="lg9" gradientUnits="userSpaceOnUse" gradientTransform="matrix(1.334164,0,0,1.334164,54.71699,-442.514)" x1="221.02206" y1="421.6228" x2="296.72556" y2="571.52942"/>
  </defs>
  <g style="display:inline">
    <path style="fill:url(#lg5);fill-opacity:1;fill-rule:nonzero;stroke:none;stroke-width:38;stroke-linecap:butt;stroke-linejoin:round;marker-start:none;stroke-miterlimit:20;stroke-dasharray:none;stroke-dashoffset:0;stroke-opacity:1" d="M 69.33962,154.99997 L 180.66039,154.99997 C 205.22454,154.99997 225,174.77544 225,199.33959 L 225,310.66037 C 225,335.22451 205.22454,354.99998 180.66039,354.99998 L 69.33962,354.99998 C 44.775476,354.99998 25,335.22451 25,310.66037 L 25,199.33959 C 25,174.77544 44.775476,154.99997 69.33962,154.99997z"/>
    <path style="opacity:0.25;fill:#f00;fill-opacity:1;fill-rule:evenodd;stroke:none;stroke-width:1px;stroke-linecap:butt;stroke-linejoin:miter;stroke-opacity:1" d="M 182.05654,230.00562 C 133.52565,230.53078 120.26069,286.69673 77.15765,287.25526 C 58.52185,287.49067 42.627272,274.70086 25.000051,259.55648 L 25.000051,311.20874 C 25.000051,335.45743 44.796904,355.00001 69.36112,354.99998 L 180.68067,354.99998 C 205.24489,354.99998 225.00005,335.45745 225.00005,311.20874 L 225.00005,240.95343 C 212.96769,234.34675 199.0342,229.81756 182.05654,230.00562z"/>
    <rect style="fill:url(#lg4);fill-opacity:1;fill-rule:nonzero;stroke:none;stroke-width:20;stroke-linecap:butt;stroke-linejoin:miter;stroke-miterlimit:4;stroke-dasharray:none;stroke-dashoffset:0;stroke-opacity:0.25098039" width="33" height="150" x="50" y="179.99998" ry="17.032595" rx="17.032595"/>
    <path style="fill:none;fill-opacity:0.50196078;fill-rule:nonzero;stroke:#800000;stroke-width:12.68599987;stroke-linecap:butt;stroke-linejoin:round;marker-start:none;stroke-miterlimit:20;stroke-dasharray:none;stroke-dashoffset:0;stroke-opacity:0.50196081;opacity:1" d="M 69.46811,161.34322 L 180.66022,161.34322 C 201.78838,161.34322 218.65712,178.22195 218.65712,199.34917 L 218.65712,310.66948 C 218.65712,331.80447 201.79163,348.657 180.66022,348.657 L 69.3399,348.657 C 48.208398,348.657 31.343,331.79658 31.343,310.66948 L 31.343,199.31104 C 31.343,178.17908 48.33351,161.34322 69.46811,161.34322z"/>
  </g>
  <g style="display:inline">
    <path style="fill:url(#lg7);fill-opacity:1;fill-rule:nonzero;stroke:none;stroke-width:38.28099823;stroke-linecap:butt;stroke-linejoin:miter;marker-start:none;stroke-miterlimit:4;stroke-dasharray:none;stroke-dashoffset:0;stroke-opacity:0.37647059" d="M 199.33962,24.99998 L 310.6604,24.99998 C 335.22455,24.99998 355,44.77545 355,69.33958 L 355,180.66037 C 355,205.22451 335.22455,224.99998 310.6604,224.99998 L 199.33962,224.99998 C 174.77548,224.99998 155,205.22451 155,180.66037 L 155,69.33958 C 155,44.77545 174.77548,24.99998 199.33962,24.99998z"/>
    <path style="opacity:0.25;fill:#00f;fill-opacity:1;fill-rule:evenodd;stroke:none;stroke-width:1px;stroke-linecap:butt;stroke-linejoin:miter;stroke-opacity:1" d="M 312.05649,100.00562 C 263.5256,100.5308 250.26065,156.69674 207.1576,157.25527 C 188.52179,157.49067 172.62722,144.70086 155,129.55648 L 155,181.20875 C 155,205.45743 174.79685,225.00001 199.36106,224.99998 L 310.68063,224.99998 C 335.24483,224.99998 355,205.45745 355,181.20875 L 355,110.95344 C 342.96764,104.34675 329.03415,99.81756 312.05649,100.00562z"/>
    <rect style="fill:url(#lg6);fill-opacity:1.0;fill-rule:nonzero;stroke:none;stroke-width:20;stroke-linecap:butt;stroke-linejoin:miter;stroke-miterlimit:4;stroke-dasharray:none;stroke-dashoffset:0;stroke-opacity:0.25098039" width="33" height="150" x="180" y="49.999981" ry="17.032595" rx="17.032595"/>
    <path d="M 199.46811,31.34322 L 310.66022,31.34322 C 331.78838,31.34322 348.65712,48.22195 348.65712,69.34917 L 348.65712,180.66948 C 348.65712,201.80447 331.79163,218.657 310.66022,218.657 L 199.3399,218.657 C 178.2084,218.657 161.343,201.79658 161.343,180.66948 L 161.343,69.31104 C 161.343,48.17908 178.33351,31.34322 199.46811,31.34322z" style="opacity:1;fill:none;fill-opacity:0.50196078;fill-rule:nonzero;stroke:#000080;stroke-width:12.68599987;stroke-linecap:butt;stroke-linejoin:round;marker-start:none;stroke-miterlimit:20;stroke-dasharray:none;stroke-dashoffset:0;stroke-opacity:0.50196081;display:inline"/>
  </g>
  <g>
    <path style="fill:url(#lg9);fill-opacity:1;fill-rule:nonzero;stroke:none;stroke-width:38.28144073;stroke-linecap:butt;stroke-linejoin:miter;marker-start:none;stroke-miterlimit:4;stroke-dasharray:none;stroke-dashoffset:0;stroke-opacity:0.37647059;display:inline" d="M 344.33962,119.99997 L 455.66039,119.99997 C 480.22454,119.99997 500,139.77544 500,164.33959 L 500,275.66037 C 500,300.22451 480.22454,319.99998 455.66039,319.99998 L 344.33962,319.99998 C 319.77547,319.99998 300,300.22451 300,275.66037 L 300,164.33959 C 300,139.77544 319.77547,119.99997 344.33962,119.99997z"/>
    <path style="opacity:0.25;fill:#c0c000;fill-opacity:1;fill-rule:evenodd;stroke:none;stroke-width:1px;stroke-linecap:butt;stroke-linejoin:miter;stroke-opacity:1;display:inline" d="M 457.05649,195.00562 C 408.5256,195.53079 395.26065,251.69673 352.1576,252.25526 C 333.52179,252.49067 317.62722,239.70086 300,224.55647 L 300,276.20875 C 300,300.45743 319.79685,320.00001 344.36106,319.99998 L 455.68063,319.99998 C 480.24484,319.99998 500,300.45745 500,276.20875 L 500,205.95343 C 487.96764,199.34674 474.03416,194.81756 457.05649,195.00562z"/>
    <rect style="fill:url(#lg8);fill-opacity:1;fill-rule:nonzero;stroke:none;stroke-width:20;stroke-linecap:butt;stroke-linejoin:miter;stroke-miterlimit:4;stroke-dasharray:none;stroke-dashoffset:0;stroke-opacity:0.25098039;display:inline" width="33" height="150" x="325" y="144.99998" ry="17.032595" rx="17.032595"/>
    <path style="opacity:1;fill:none;fill-opacity:0.50196078;fill-rule:nonzero;stroke:#808000;stroke-width:12.68599987;stroke-linecap:butt;stroke-linejoin:round;marker-start:none;stroke-miterlimit:20;stroke-dasharray:none;stroke-dashoffset:0;stroke-opacity:0.50196081;display:inline" d="M 344.46811,126.34322 L 455.66022,126.34322 C 476.78838,126.34322 493.65712,143.22195 493.65712,164.34917 L 493.65712,275.66948 C 493.65712,296.80447 476.79163,313.657 455.66022,313.657 L 344.3399,313.657 C 323.2084,313.657 306.343,296.79658 306.343,275.66948 L 306.343,164.31104 C 306.343,143.17908 323.33351,126.34322 344.46811,126.34322z"/>
  </g>
</svg>
